HIERARCHY
ROOT Hips
{
	OFFSET 0.000000 0.000000 0.000000 
	CHANNELS 6 Xposition Yposition Zposition Zrotation Yrotation Xrotation
	JOINT LeftUpLeg
	{
		OFFSET 1.363060 -1.794630 0.839290 
		CHANNELS 3 Zrotation Yrotation Xrotation
		JOINT LeftLeg
		{
			OFFSET 2.448110 -6.726130 0.000000 
			CHANNELS 3 Zrotation Yrotation Xrotation
			JOINT LeftFoot
			{
				OFFSET 2.562200 -7.039590 0.000000 
				CHANNELS 3 Zrotation Yrotation Xrotation
				JOINT LeftToeBase
				{
					OFFSET 0.157640 -0.433110 2.322550 
					CHANNELS 3 Zrotation Yrotation Xrotation
					End Site
					{
						OFFSET 0.000000 0.000000 0.000000 
					}
				}
			}
		}
	}
	JOINT RightUpLeg
	{
		OFFSET -1.305520 -1.794630 0.839290 
		CHANNELS 3 Zrotation Yrotation Xrotation
		JOINT RightLeg
		{
			OFFSET -2.542530 -6.985550 0.000000 
			CHANNELS 3 Zrotation Yrotation Xrotation
			JOINT RightFoot
			{
				OFFSET -2.568260 -7.056230 0.000000 
				CHANNELS 3 Zrotation Yrotation Xrotation
				JOINT RightToeBase
				{
					OFFSET -0.164730 -0.452590 2.363150 
					CHANNELS 3 Zrotation Yrotation Xrotation
					End Site
					{
						OFFSET 0.000000 0.000000 0.000000 
					}
				}
			}
		}
	}
	JOINT Spine
	{
		OFFSET 0.028270 2.035590 -0.193380 
		CHANNELS 3 Zrotation Yrotation Xrotation
		JOINT Spine1
		{
			OFFSET 0.056720 2.048850 -0.042750 
			CHANNELS 3 Zrotation Yrotation Xrotation
			JOINT Neck1
			{
				OFFSET -0.054170 1.746240 0.172020 
				CHANNELS 3 Zrotation Yrotation Xrotation
				JOINT Head
				{
					OFFSET 0.104070 1.761360 -0.123970 
					CHANNELS 3 Zrotation Yrotation Xrotation
					End Site
					{
						OFFSET 0.000000 0.000000 0.000000 
					}
				}
			}
			JOINT LeftArm
			{
				OFFSET 3.362410 1.200890 -0.311210 
				CHANNELS 3 Zrotation Yrotation Xrotation
				JOINT LeftForeArm
				{
					OFFSET 4.983000 -0.000000 -0.000000 
					CHANNELS 3 Zrotation Yrotation Xrotation
					JOINT LeftHand
					{
						OFFSET 3.483560 -0.000000 -0.000000 
						CHANNELS 3 Zrotation Yrotation Xrotation
						JOINT LeftHandIndex1
						{
							OFFSET 0.715260 -0.000000 -0.000000 
							CHANNELS 3 Zrotation Yrotation Xrotation
							End Site
							{
								OFFSET 0.000000 0.000000 0.000000 
							}
						}
					}
				}
			}
			JOINT RightArm
			{
				OFFSET -3.136600 1.374050 -0.404650 
				CHANNELS 3 Zrotation Yrotation Xrotation
				JOINT RightForeArm
				{
					OFFSET -5.241900 -0.000000 -0.000000 
					CHANNELS 3 Zrotation Yrotation Xrotation
					JOINT RightHand
					{
						OFFSET -3.444170 -0.000000 -0.000000 
						CHANNELS 3 Zrotation Yrotation Xrotation
						JOINT RightHandIndex1
						{
							OFFSET -0.622530 -0.000000 -0.000000 
							CHANNELS 3 Zrotation Yrotation Xrotation
							End Site
							{
								OFFSET 0.000000 0.000000 0.000000 
							}
						}
					}
				}
			}
		}
	}
}
MOTION
Frames: 18
Frame Time: 0.041667
14.656689 17.818362 -10.742771 -179.614123 -43.896311 178.905760 -25.720931 -1.934469 -3.799455 -0.445862 5.219055 16.938023 0.933408 -15.924175 4.586460 1.452900 7.619000 21.562700 10.459621 17.799682 -18.776646 -5.233262 -13.864097 43.336209 -0.533063 1.277565 -2.404982 -0.413400 4.127300 -11.435200 1.461481 -0.450227 1.105992 1.475328 -0.275917 -4.505267 4.413639 -3.675903 18.654631 3.287500 -2.608200 12.999300 -83.000656 4.187991 30.670984 20.358078 -28.449005 -6.486350 -0.740230 -2.172203 4.775329 -7.125000 0.000000 0.000000 81.345885 -4.242266 18.671263 -16.975866 25.000195 -4.029547 0.426684 -0.142610 5.525437 7.125000 0.000000 0.000000 
14.615282 17.827887 -10.805032 -179.611824 -44.867982 178.970381 -25.622880 -2.112822 -3.448416 -0.451286 5.175560 16.829414 0.923448 -16.474388 4.771587 1.385200 7.447000 21.046600 10.198021 18.795175 -18.485662 -4.812890 -13.422659 41.644941 -0.703406 2.250492 -2.101651 -0.413400 4.127000 -11.434200 1.462818 -0.499729 1.122593 1.521167 -0.308722 -4.436651 4.698116 -3.740744 18.760040 3.453900 -2.630300 13.106700 -83.018962 4.070741 30.935230 20.487429 -28.598860 -6.570027 -0.735311 -2.154007 4.695890 -7.125000 0.000000 0.000000 81.316893 -4.292539 18.658811 -16.996333 25.026605 -4.037821 0.433887 -0.136520 5.232673 7.125000 0.000000 0.000000 
14.570967 17.830093 -10.864285 -179.569115 -45.839844 178.956016 -25.509797 -2.244854 -3.121472 -0.439870 5.173774 16.841505 0.909451 -17.123096 4.952544 1.338900 7.326300 20.685900 10.041965 19.546906 -18.152723 -4.413426 -12.979713 39.991592 -0.857879 3.127963 -1.958993 -0.440500 4.258500 -11.805000 1.501307 -0.566130 1.205265 1.602653 -0.352404 -4.234795 4.677583 -3.753119 18.641387 3.432900 -2.620600 13.055700 -83.160160 3.859137 31.081119 20.657150 -28.791424 -6.678966 -0.712527 -2.142529 4.555358 -7.125000 0.000000 0.000000 81.265443 -4.162663 18.698534 -16.973175 24.993311 -4.024604 0.443984 -0.133864 5.069399 7.125000 0.000000 0.000000 
14.528257 17.827386 -10.916821 -179.293383 -46.805415 178.842191 -25.234525 -2.538991 -2.873784 -0.424519 5.204414 16.945853 0.880228 -17.760446 5.494560 1.534100 7.819500 22.167100 10.118588 20.007663 -18.008024 -4.044820 -12.548904 38.419607 -0.994066 3.845902 -2.202678 -0.544200 4.726100 -13.129000 1.553569 -0.619945 1.218385 1.587373 -0.384166 -4.183342 4.599510 -3.733773 18.487085 3.384000 -2.603400 12.948100 -83.219665 3.825400 31.286557 20.887595 -29.061716 -6.819628 -0.713515 -2.170327 4.622239 -7.125000 0.000000 0.000000 81.179033 -4.125722 18.715594 -16.957026 24.974342 -4.017595 0.443289 -0.130987 5.018108 7.125000 0.000000 0.000000 
14.485647 17.822774 -10.971162 -179.029179 -47.712600 178.771443 -24.971428 -2.800382 -2.722353 -0.401189 5.263239 17.121267 0.863803 -18.302167 5.739390 1.596700 7.970000 22.623000 10.127508 20.478943 -17.926887 -3.711320 -12.128225 36.940810 -1.206310 5.119170 -2.049151 -0.453800 4.321700 -11.983700 1.603409 -0.633117 1.167333 1.591028 -0.388961 -4.254810 4.500190 -3.733380 18.446443 3.320900 -2.605900 12.874400 -83.305832 3.936055 31.414396 21.061391 -29.265362 -6.924729 -0.725024 -2.197763 4.797388 -7.125000 0.000000 0.000000 81.159387 -4.213086 18.429280 -16.914858 24.921537 -3.999463 0.432019 -0.130997 5.328932 7.125000 0.000000 0.000000 
14.439628 17.817861 -11.030916 -178.899867 -48.570068 178.745554 -24.807974 -2.866403 -2.568482 -0.371146 5.318391 17.282108 0.856312 -18.955854 5.587903 1.474700 7.673400 21.726500 10.058902 20.916220 -17.733326 -3.410836 -11.725913 35.567479 -1.405106 6.498084 -1.406470 -0.293100 3.481100 -9.621200 1.624928 -0.611273 1.172986 1.596185 -0.382021 -4.202515 4.514724 -3.788107 18.423094 3.319100 -2.625300 12.853200 -83.411609 3.845059 31.586514 21.098662 -29.300314 -6.947460 -0.730789 -2.200702 4.551376 -7.125000 0.000000 0.000000 81.209364 -4.205337 17.964261 -16.837148 24.823883 -3.965101 0.419521 -0.135849 5.837281 7.125000 0.000000 0.000000 
14.392306 17.819966 -11.088465 -178.626584 -49.460917 178.561997 -24.566717 -2.995166 -2.296868 -0.358096 5.339457 17.353967 0.834787 -19.364071 5.839414 1.563500 7.890700 22.382600 10.203817 20.971138 -17.678813 -3.141875 -11.359127 34.318891 -1.517147 7.325425 -0.969906 -0.331700 3.701600 -10.238700 1.635542 -0.574985 1.214499 1.505216 -0.373749 -4.104644 4.663415 -3.873744 18.447176 3.378800 -2.645300 12.880300 -83.386593 3.693465 31.988713 21.154230 -29.359154 -6.979203 -0.778669 -2.195142 4.202335 -7.125000 0.000000 0.000000 81.280987 -4.157003 17.605506 -16.787453 24.763337 -3.942804 0.415838 -0.138651 6.143173 7.125000 0.000000 0.000000 
14.346287 17.823776 -11.145211 -178.200654 -50.372436 178.256392 -24.243422 -3.059580 -2.030685 -0.359277 5.320601 17.325010 0.793786 -19.794799 6.489457 1.792500 8.419700 23.996400 10.519121 20.729242 -17.846811 -2.911291 -11.031874 33.202154 -1.671794 8.311651 -1.180358 -0.561800 4.801000 -13.341900 1.633405 -0.594404 1.232409 1.343091 -0.388621 -4.066302 4.642488 -3.915457 18.442251 3.322400 -2.640100 12.854200 -83.213068 3.723341 32.277499 21.289315 -29.526056 -7.064988 -0.809843 -2.187320 3.943044 -7.125000 0.000000 0.000000 81.365770 -4.160118 17.625020 -16.769278 24.744618 -3.936644 0.412451 -0.139081 6.126029 7.125000 0.000000 0.000000 
14.300067 17.816658 -11.202560 -177.912185 -51.225743 178.139176 -24.014950 -2.951499 -1.886306 -0.367592 5.269288 17.199332 0.758839 -20.300124 6.875833 1.864100 8.577100 24.481000 10.716788 20.453659 -18.147900 -2.725374 -10.748869 32.213661 -1.924130 9.686276 -2.363974 -0.873300 5.958100 -16.662900 1.590641 -0.577342 1.211112 1.104813 -0.379253 -4.074230 4.464774 -3.940252 18.317256 3.176100 -2.627600 12.747200 -83.008938 3.742879 32.541794 21.362173 -29.620361 -7.116723 -0.783859 -2.198085 3.624473 -7.125000 0.000000 0.000000 81.452753 -4.196924 17.685255 -16.759083 24.736773 -3.934456 0.408326 -0.137120 5.938415 7.125000 0.000000 0.000000 
14.253647 17.813249 -11.256700 -178.027370 -52.057636 178.361814 -24.057636 -2.995300 -1.624679 -0.387647 5.188897 16.983700 0.744586 -20.495566 6.882106 1.814700 8.468900 24.147600 10.673088 19.991076 -18.582152 -2.548643 -10.486795 31.353997 -1.998477 10.797773 -1.017469 -0.571300 4.840600 -13.454400 1.614670 -0.539044 1.173961 1.204292 -0.356793 -4.141269 4.181986 -3.850554 18.151841 3.030200 -2.596300 12.608100 -83.122142 3.743187 32.759770 21.384811 -29.642961 -7.136778 -0.740143 -2.220137 3.531839 -7.125000 0.000000 0.000000 81.211543 -4.235520 17.769805 -16.730436 24.700372 -3.922715 0.399731 -0.134428 6.074450 7.125000 0.000000 0.000000 
14.205924 17.819866 -11.307631 -178.257803 -52.855267 178.587241 -24.175284 -3.115725 -1.212752 -0.405566 5.107769 16.777772 0.715473 -20.683958 7.084857 1.815400 8.470400 24.152300 10.645817 19.203031 -19.011166 -2.391489 -10.253183 30.587490 -2.074677 12.048239 0.359661 -0.497100 4.520200 -12.545100 1.646143 -0.535948 1.144825 1.407144 -0.352324 -4.246642 4.009787 -3.739517 18.202833 2.951100 -2.559500 12.615200 -83.319862 3.782313 32.743495 21.402928 -29.656829 -7.147330 -0.727850 -2.238612 3.684361 -7.125000 0.000000 0.000000 80.910961 -4.270632 18.194617 -16.713160 24.669387 -3.913810 0.400211 -0.124510 5.988762 7.125000 0.000000 0.000000 
14.153588 17.834504 -11.361771 -178.198468 -53.617406 178.503694 -24.103209 -3.187658 -0.777512 -0.416500 5.047934 16.632957 0.681193 -20.942889 7.431917 1.871600 8.593200 24.531000 10.898991 18.418473 -19.279355 -2.248100 -10.037596 29.893754 -2.099506 12.822259 1.511891 -0.348000 3.790300 -10.487500 1.653863 -0.503060 1.163078 1.449713 -0.342037 -4.250745 4.111194 -3.788555 18.319207 3.002700 -2.577700 12.706600 -83.343116 3.739383 32.706512 21.370810 -29.616257 -7.125298 -0.734727 -2.235860 3.865399 -7.125000 0.000000 0.000000 80.831762 -4.301735 18.670118 -16.711574 24.655150 -3.909670 0.416745 -0.111061 5.183823 7.125000 0.000000 0.000000 
14.099248 17.844831 -11.416713 -177.803971 -54.272095 178.223298 -23.829094 -3.316616 -0.430727 -0.434380 5.000507 16.501343 0.690750 -20.839455 7.474633 1.784400 8.401700 23.940900 11.378193 17.738309 -19.599795 -2.128746 -9.843999 29.270435 -2.152769 13.652580 1.942701 -0.208800 2.942200 -8.118000 1.682899 -0.410086 1.183423 1.385337 -0.305549 -4.196770 4.240777 -3.797714 18.346289 3.098400 -2.586300 12.740800 -83.242826 3.733985 32.934742 21.390785 -29.644601 -7.144588 -0.728528 -2.216223 3.616224 -7.125000 0.000000 0.000000 80.781353 -4.312870 18.853751 -16.691567 24.628411 -3.898823 0.429486 -0.115906 4.497674 7.125000 0.000000 0.000000 
14.044807 17.838715 -11.467545 -177.641047 -54.816742 178.174637 -23.732926 -3.352515 -0.162547 -0.447653 4.954256 16.374257 0.700686 -20.758366 7.357891 1.631300 8.051800 22.871500 11.737232 16.858197 -20.099098 -2.032935 -9.676714 28.709668 -2.260436 15.036107 1.922645 -0.262000 3.293100 -9.095800 1.651612 -0.290589 1.150786 1.213135 -0.248827 -4.262969 4.368379 -3.752820 18.456036 3.194100 -2.572900 12.805300 -83.139670 3.888679 33.051894 21.443019 -29.713006 -7.184675 -0.716441 -2.196768 3.427050 -7.125000 0.000000 0.000000 80.769689 -4.378723 18.894614 -16.648914 24.576453 -3.880261 0.430950 -0.125334 4.534029 7.125000 0.000000 0.000000 
13.995680 17.836309 -11.517073 -177.735978 -55.576882 178.342828 -23.785871 -3.539915 0.128290 -0.455997 4.922865 16.301337 0.679868 -20.791764 7.647384 1.624100 8.034800 22.819700 11.940842 15.904343 -20.598566 -1.939020 -9.521093 28.196940 -2.301185 16.040182 2.422804 -0.250000 3.217600 -8.885100 1.584115 -0.281958 1.102702 1.087995 -0.243364 -4.380274 4.515349 -3.802382 18.611180 3.257200 -2.583400 12.911900 -83.043306 4.019924 33.018556 21.471707 -29.750955 -7.200294 -0.718706 -2.212017 3.465025 -7.125000 0.000000 0.000000 80.889999 -4.421482 18.761903 -16.633737 24.557711 -3.874104 0.427314 -0.131299 4.881579 7.125000 0.000000 0.000000 
13.949962 17.851849 -11.565297 -177.779199 -56.445010 178.461721 -23.779259 -3.732005 0.383581 -0.465044 4.890525 16.225305 0.650673 -20.938549 8.052622 1.612300 8.007000 22.735400 12.137912 15.284780 -20.942017 -1.846599 -9.376176 27.751809 -2.265244 16.308773 3.454603 -0.173000 2.679400 -7.387400 1.552149 -0.295073 1.059237 1.060653 -0.249096 -4.508630 4.679283 -3.827595 18.715669 3.340600 -2.585300 12.989700 -82.954911 4.137127 32.989861 21.432258 -29.710580 -7.177794 -0.707380 -2.208661 3.533198 -7.125000 0.000000 0.000000 80.990780 -4.450456 18.469001 -16.664280 24.599582 -3.889176 0.418434 -0.129419 5.082604 7.125000 0.000000 0.000000 
13.898830 17.865584 -11.615126 -177.747686 -57.174172 178.423679 -23.717014 -3.752276 0.726094 -0.474187 4.837559 16.093878 0.621067 -21.180718 8.333681 1.540900 7.836100 22.217300 12.381664 14.940508 -21.067998 -1.768313 -9.247401 27.359342 -2.240113 16.467754 4.162225 -0.206200 2.923700 -8.066500 1.575143 -0.209638 1.081786 1.130621 -0.211282 -4.523259 4.777666 -3.821065 18.796418 3.406800 -2.582000 13.063100 -83.067626 4.055420 32.601206 21.225828 -29.461163 -7.047401 -0.708108 -2.165890 3.883170 -7.125000 0.000000 0.000000 81.109951 -4.274762 17.396056 -16.566864 24.471300 -3.842980 0.406383 -0.145253 6.138079 7.125000 0.000000 0.000000 
13.843788 17.877014 -11.669366 -177.774982 -57.938019 178.567312 -23.657715 -4.199373 1.173949 -0.506297 4.764234 15.905316 0.597667 -21.001893 9.142321 1.784300 8.401700 23.940800 12.530337 14.783702 -21.243637 -1.703670 -9.138643 27.011577 -2.233401 16.560231 4.434085 -0.215900 2.991600 -8.255300 1.712109 -0.124410 1.157653 1.533288 -0.178009 -4.273765 4.552063 -3.790942 18.743837 3.310200 -2.589700 13.032000 -83.619431 3.693767 31.933438 20.926396 -29.076260 -6.838818 -0.765177 -2.179168 4.277565 -7.125000 0.000000 0.000000 81.070399 -3.996755 16.017291 -16.480524 24.357066 -3.798979 0.398673 -0.168988 7.717457 7.125000 0.000000 0.000000 
